HIERARCHY
ROOT Hips
{
  OFFSET -163.823 86.7702 109.061
  CHANNELS 6 Xposition Yposition Zposition Zrotation Xrotation Yrotation
  JOINT RightUpLeg
  {
    OFFSET -8.9458 -8.66707 0.101652
    CHANNELS 3 Zrotation Xrotation Yrotation
    JOINT RightLeg
    {
      OFFSET 0 -44.4227 1.3727
      CHANNELS 3 Zrotation Xrotation Yrotation
      JOINT RightFoot
      {
        OFFSET 0.253549 -42.0924 -1.46059
        CHANNELS 3 Zrotation Xrotation Yrotation
        JOINT RightToes
        {
          OFFSET 0.04 -4.41509 8.4991
          CHANNELS 3 Zrotation Xrotation Yrotation
          End Site
          {
            OFFSET -0.08 -0.137448 9.77979
          }
        }
      }
    }
  }
  JOINT Spine
  {
    OFFSET 0 11.8905 0
    CHANNELS 3 Zrotation Xrotation Yrotation
    JOINT Spine1
    {
      OFFSET 0 25.6574 0.127663
      CHANNELS 3 Zrotation Xrotation Yrotation
      JOINT HEad
      {
        OFFSET 0 8.73416 0.011341
        CHANNELS 3 Zrotation Xrotation Yrotation
        End Site
        {
          OFFSET -0.29 12.7742 2.51395
        }
      }
      JOINT LeftShoulder1
      {
        OFFSET 8.99 -0.362252 -0.22
        CHANNELS 3 Zrotation Xrotation Yrotation
        JOINT LeftArm
        {
          OFFSET 10.2827 -0.00338 0.322123
          CHANNELS 3 Zrotation Xrotation Yrotation
          JOINT LeftForeArm
          {
            OFFSET 32.7669 0.099144 -1.42434
            CHANNELS 3 Zrotation Xrotation Yrotation
            JOINT LeftHand
            {
              OFFSET 27.5643 0.085362 1.02216
              CHANNELS 3 Zrotation Xrotation Yrotation
              End Site
              {
                OFFSET 16.7443 -0.6 1.50291
              }
            }
          }
        }
      }
      JOINT RightShoulder
      {
        OFFSET -8.99 -0.362252 -0.22
        CHANNELS 3 Zrotation Xrotation Yrotation
        JOINT RightArm
        {
          OFFSET -10.2827 -0.00338 0.322123
          CHANNELS 3 Zrotation Xrotation Yrotation
          JOINT RightForeArm
          {
            OFFSET -32.8971 0.099144 -1.42434
            CHANNELS 3 Zrotation Xrotation Yrotation
            JOINT RightHand
            {
              OFFSET -27.4921 0.085362 1.02216
              CHANNELS 3 Zrotation Xrotation Yrotation
              End Site
              {
                OFFSET -16.6312 -0.6 1.50291
              }
            }
          }
        }
      }
    }
  }
  JOINT LeftUpLeg
  {
    OFFSET 8.9458 -8.66707 0.101652
    CHANNELS 3 Zrotation Xrotation Yrotation
    JOINT LeftLeg
    {
      OFFSET 0 -44.4227 1.3727
      CHANNELS 3 Zrotation Xrotation Yrotation
      JOINT LeftFoot
      {
        OFFSET -0.253549 -42.0924 -1.46059
        CHANNELS 3 Zrotation Xrotation Yrotation
        JOINT LeftToes
        {
          OFFSET -0.04 -4.41509 8.4991
          CHANNELS 3 Zrotation Xrotation Yrotation
          End Site
          {
            OFFSET 0.08 -0.047448 9.77979
          }
        }
      }
    }
  }
}
MOTION
Frames:	12
Frame Time:	0.0166667
-163.823 86.7702 109.061 -0.60736 6.5449 -156.549 -24.973 -33.6039 5.03777 20.436 40.4182 -24.9885 25.8793 32.8629 -9.21544 -48.1834 -41.0318 -1.88355 1.25696 10.3658 0.517487 -4.39501 20.0104 1.91455 10.2659 -12.4317 -21.9382 3.53113e-031 -3.18055e-015 6.36111e-015 -74.2754 -9.12733 -67.451 21.6214 27.626 -121.693 -3.12912 9.14659 26.5799 27.1172 -1.19921 -6.44452 71.3118 -42.0288 42.0765 -10.0118 31.8752 131.846 -6.2577 9.87316 -3.74881 31.6733 0.302442 -10.4136 -5.67302 21.0934 22.4386 20.1764 34.8538 -7.82788 67.1649 -48.0662 45.4468 
-164.667 85.8522 109.712 -1.16164 7.32658 -157.873 -24.2243 -34.4176 5.90913 21.298 42.1923 -28.5753 25.263 33.8373 -9.20692 -47.0081 -39.6838 -2.38123 0.84615 10.8177 0.526086 -4.70167 20.8778 1.91425 10.5029 -12.8837 -21.3331 3.18055e-015 0 -0 -76.7189 -10.6144 -69.0036 19.9894 30.2503 -120.103 -2.84719 9.23237 25.6116 27.2237 -1.18311 -6.37264 72.0077 -40.2401 43.002 -10.2269 31.9823 130.574 -7.3997 9.8068 -2.69127 31.5347 0.845736 -9.33787 -6.87371 23.68 24.7108 22.7817 33.0871 -8.45007 70.0647 -47.8625 48.6304 
-165.401 85.1224 110.214 -1.73594 7.872 -159.184 -23.5996 -35.4634 6.91533 20.9471 43.9275 -30.2433 25.1141 35.1278 -9.44052 -46.1464 -38.9318 -2.38829 0.498476 11.1435 0.513698 -5.07253 21.4863 1.84142 10.6813 -13.1279 -20.644 3.53113e-031 6.36111e-015 -3.18055e-015 -78.2802 -11.9852 -69.3457 17.9162 31.6844 -119.398 -2.0501 9.40829 24.484 27.533 -1.20921 -6.4161 71.8655 -38.0331 42.9215 -10.2693 31.8611 129.93 -8.18701 9.74166 -1.84974 31.3875 1.20982 -8.72661 -8.51695 26.0282 26.807 24.1907 31.2293 -8.55003 71.5262 -47.6068 50.387 
-166.03 84.6465 110.542 -2.15844 8.2033 -160.471 -22.8709 -36.5305 8.19262 19.1405 45.2127 -28.9522 26.9587 37.5276 -10.748 -47.3052 -39.8266 -2.56048 0.232602 11.2954 0.495266 -5.37835 21.7555 1.75014 10.7775 -13.083 -19.9266 -3.18055e-015 6.36111e-015 -9.54166e-015 -78.9181 -13.2718 -68.4909 15.7997 32.0442 -119.777 -0.845698 9.63514 23.3751 28.1267 -1.30736 -6.65834 70.8589 -35.5548 42.2914 -10.2168 31.5196 129.915 -8.59893 9.69493 -1.2905 31.3505 1.61224 -8.66357 -10.4475 27.6101 28.8396 24.7303 29.7159 -8.39141 72.1063 -47.4542 51.1417 
-166.519 84.4759 110.672 -2.35717 8.3835 -161.591 -22.0613 -37.2523 9.65833 16.4285 45.6578 -24.8978 31.2735 40.4443 -13.3954 -50.6001 -42.4522 -2.91321 0.0516525 11.2736 0.444237 -5.52234 21.7044 1.61333 10.8222 -12.7431 -19.2352 3.18055e-015 -9.54166e-015 -0 -78.5336 -14.3458 -66.523 14.1768 31.2023 -121.283 0.369301 9.83897 22.5158 28.9322 -1.4732 -7.07912 69.1443 -33.0664 41.6477 -10.0753 30.9666 130.389 -8.59364 9.67708 -1.02517 31.4202 2.18186 -9.0194 -12.1848 28.161 30.4219 24.4722 28.8334 -8.10208 72.1463 -47.4434 51.194 
-166.817 84.6217 110.593 -2.39309 8.44371 -162.318 -21.5018 -37.4292 10.9473 13.9108 45.2121 -19.1277 37.1285 42.2167 -16.6819 -54.2604 -45.9351 -2.50966 -0.0237193 11.108 0.32367 -5.43307 21.3969 1.35154 10.802 -12.1697 -18.6711 -7.95139e-016 3.18055e-015 -3.18055e-015 -77.1514 -14.926 -63.5631 13.4007 28.9937 -123.7 1.15444 9.96132 22.0981 29.6311 -1.64309 -7.51007 67.0418 -31.0052 41.2215 -9.78613 30.1517 131.336 -7.962 9.71437 -1.33475 31.4389 2.86937 -9.50591 -13.0895 27.7882 30.7918 23.3804 28.6713 -7.70424 71.715 -47.5252 50.6767 
-166.867 85.0539 110.299 -2.41014 8.36591 -162.45 -21.542 -37.0761 11.6737 12.4174 44.0906 -13.2936 42.149 41.99 -19.0258 -56.3943 -49.1271 -0.764513 0.0313609 10.8455 0.11715 -5.08912 20.9218 0.930771 10.6494 -11.5056 -18.3981 7.95139e-016 -6.36111e-015 -3.18055e-015 -75.1046 -14.7101 -59.9228 13.4573 25.559 -126.516 1.25748 9.97762 22.1872 29.8598 -1.74017 -7.7789 64.9047 -29.7571 40.9551 -9.36026 28.8776 132.884 -6.45401 9.81539 -2.59569 31.2327 3.52904 -9.87258 -12.7711 26.7426 29.4099 21.3953 29.2601 -7.16882 70.886 -47.662 49.7001 
-166.643 85.7097 109.808 -2.54329 8.10943 -161.912 -22.3056 -36.303 11.7149 12.1539 42.5188 -9.2452 43.9068 40.3289 -19.1988 -56.6849 -50.9874 1.32122 0.163173 10.5373 -0.137107 -4.58891 20.373 0.405862 10.3781 -10.9451 -18.5483 3.53113e-031 3.18055e-015 -6.36111e-015 -72.8382 -13.6211 -56.0932 14.0967 21.4175 -129.13 0.717392 9.8939 22.6795 29.5118 -1.74453 -7.85701 62.9965 -29.4905 40.7607 -8.94768 26.9622 135.095 -4.12241 9.91297 -4.75245 30.7317 3.98052 -10.0583 -11.3374 25.2788 26.3203 18.2716 30.5232 -6.34893 69.7477 -47.9087 48.2567 
-166.15 86.5413 109.167 -2.82596 7.64028 -160.742 -23.6291 -35.1759 11.1782 12.8166 40.5704 -8.03813 41.4446 38.0048 -17.132 -55.6626 -50.7975 2.30626 0.371697 10.2272 -0.399087 -4.09459 19.8136 -0.122294 10.1136 -10.6441 -19.1355 -2.38542e-015 6.36111e-015 3.18055e-015 -70.5847 -11.883 -52.4964 15.0427 17.2521 -131.099 -0.178414 9.7458 23.3513 28.7848 -1.69795 -7.84235 61.52 -30.3283 40.6762 -8.66623 24.6168 137.821 -1.43986 9.91794 -7.19488 30.0285 4.07558 -10.1194 -9.2288 23.544 21.9547 13.6928 32.1326 -5.00159 68.1049 -48.3564 45.9995 
-165.436 87.504 108.438 -3.21889 6.94174 -159.059 -25.1954 -33.6991 10.1677 13.7459 38.2174 -9.14876 35.5726 34.9739 -13.5538 -52.6399 -48.1154 2.48846 0.694421 9.93084 -0.632621 -3.719 19.2547 -0.561504 9.93298 -10.6504 -20.106 7.95139e-016 0 3.18055e-015 -68.3857 -9.86427 -49.3558 16.0787 13.6997 -132.233 -1.05682 9.59092 23.9612 27.9531 -1.64566 -7.82745 60.6373 -32.4733 40.8517 -8.42803 22.4721 140.733 0.987499 9.82814 -9.21214 29.264 3.71318 -10.0757 -6.9256 21.6623 16.9815 7.77499 33.591 -3.03478 65.5303 -48.9763 42.4605 
-164.578 88.5258 107.678 -3.67585 6.01958 -157.027 -26.6784 -31.8709 8.7395 14.2217 35.4401 -11.039 28.3234 30.8553 -9.61704 -46.4122 -42.8471 3.25791 1.14608 9.62988 -0.796949 -3.48491 18.6679 -0.833891 9.77081 -10.9091 -21.4566 7.95139e-016 -6.36111e-015 -0 -66.2999 -7.89879 -46.7837 17.0297 11.2599 -132.518 -1.66363 9.47958 24.3225 27.1679 -1.60449 -7.84035 60.5064 -36.1808 41.5338 -8.07557 21.2702 143.418 2.74918 9.71842 -10.3969 28.5207 2.89056 -9.90637 -4.81603 19.7049 12.2804 1.52068 34.7804 -0.793454 61.9219 -49.5279 37.7191 
-163.649 89.5165 106.914 -4.16658 4.90777 -154.846 -27.8161 -29.7691 7.01519 13.8387 32.2979 -12.4022 21.6519 25.9031 -6.34628 -37.5071 -35.3677 4.69923 1.68525 9.29101 -0.848127 -3.3492 18.0168 -0.876427 9.48069 -11.3237 -23.2304 -3.18055e-015 -3.18055e-015 -0 -64.4453 -6.18095 -44.8384 17.7292 10.179 -132.059 -1.9535 9.42917 24.3198 26.3651 -1.55562 -7.8295 61.5017 -41.723 43.1894 -7.57069 21.6437 145.437 3.75764 9.65196 -10.7492 27.805 1.69029 -9.6036 -3.2133 17.7629 8.66788 -3.61479 36.1058 1.15434 57.7601 -49.7001 32.5948 
